<?xml version="1.0" encoding="utf-8"?>
<!-- Svg Vector Icons : http://www.onlinewebfonts.com/icon -->
<!DOCTYPE svg PUBLIC "-//W3C//DTD SVG 1.1//EN" "http://www.w3.org/Graphics/SVG/1.1/DTD/svg11.dtd">
<svg version="1.1" xmlns="http://www.w3.org/2000/svg" xmlns:xlink="http://www.w3.org/1999/xlink" x="0px" y="0px" viewBox="0 0 1000 1000" enable-background="new 0 0 1000 1000" xml:space="preserve">
<metadata> Svg Vector Icons : http://www.onlinewebfonts.com/icon </metadata>
<g><path d="M500,10C229.4,10,10,229.4,10,500c0,270.6,219.4,490,490,490c270.6,0,490-219.4,490-490C990,229.4,770.6,10,500,10z M81.6,500C81.6,268.9,268.9,81.6,500,81.6c103.3,0,197.9,37.5,270.9,99.5L181.1,770.9C119.1,697.9,81.6,603.3,81.6,500z M500,918.4c-102.9,0-197.2-37.2-270.1-98.8l589.7-589.7c61.7,72.9,98.8,167.1,98.8,270.1C918.4,731.1,731.1,918.4,500,918.4z M518.9,291c-2.1-0.2-4.3-0.3-6.4-0.4c-65-3.5-131.5,15.8-202.9,59.1c-45.1,27.3-87.7,61.2-130.1,97.8l0,0l-53.1,45c49.8,49.8,99.1,97.8,152.1,136.7l49.4-49.4c-32.6-23.2-65.2-51.7-98.7-83.6c95-81.3,184.4-141.6,279.4-136.5c1.6,0.1,3.2,0.2,4.8,0.3c9.6,0.7,19.5,2.3,29.6,4.6l55.9-55.9C573,299.8,545.9,293.1,518.9,291z M407.8,500l94.4-94.4C450.4,406.2,408.4,448.1,407.8,500z M881.9,508.1c-44.1-49.2-101.8-98.5-159-136.2l-50.2,50.2c38.6,24.2,76.3,53.4,109.6,83.9c-84.8,71.2-197.4,134.1-282.3,136c-1.6,0-3.2,0.1-4.8,0.1c-13.2,0-26.2-1.2-39-3.5l-56.5,56.5c32.1,11,63.8,16.4,95.4,16.4c2.1,0,4.3,0,6.4-0.1c74.1-1.7,151.2-37.2,202.8-66.6c60.9-34.8,123.4-82.3,171.5-130.3l-0.5-0.5L881.9,508.1z M598.9,501.1c0-1.7,0-3.4-0.1-5.1L498.2,596.5c1.7,0.1,3.4,0.1,5.1,0.1C556.1,596.7,598.9,553.9,598.9,501.1z"/></g>
</svg>