<?xml version="1.0" encoding="utf-8"?>
<!-- Svg Vector Icons : http://www.onlinewebfonts.com/icon -->
<!DOCTYPE svg PUBLIC "-//W3C//DTD SVG 1.1//EN" "http://www.w3.org/Graphics/SVG/1.1/DTD/svg11.dtd">
<svg version="1.1" xmlns="http://www.w3.org/2000/svg" xmlns:xlink="http://www.w3.org/1999/xlink" x="0px" y="0px" viewBox="0 0 1000 1000" enable-background="new 0 0 1000 1000" xml:space="preserve">
<metadata> Svg Vector Icons : http://www.onlinewebfonts.com/icon </metadata>
<g><path d="M500,763.9c298.4,0,452.3-263.9,452.3-263.9S809,236.1,500,236.1C211,236.1,47.7,500,47.7,500S185.9,763.9,500,763.9z M500,273.9c240.8,0,414.6,226.1,414.6,226.1S754.8,726.1,500,726.1C258.1,726.1,85.4,500,85.4,500S292.2,273.9,500,273.9z M500,10C229.4,10,10,229.4,10,500s219.4,490,490,490s490-219.4,490-490S770.6,10,500,10z M500,952.3C250.2,952.3,47.7,749.8,47.7,500S250.2,47.7,500,47.7S952.3,250.2,952.3,500C952.3,749.8,749.8,952.3,500,952.3z M500,688.5c104.1,0,188.5-84.4,188.5-188.5c0-104.1-84.4-188.5-188.5-188.5c-104.1,0-188.5,84.4-188.5,188.5C311.5,604.1,395.9,688.5,500,688.5z M500,349.2c83.2,0,150.8,67.5,150.8,150.8S583.3,650.8,500,650.8S349.2,583.3,349.2,500S416.8,349.2,500,349.2z M575.4,500h37.7C610.7,385.8,500,386.9,500,386.9v37.7C576.6,424.6,575.4,500,575.4,500z"/></g>
</svg>